<svg xmlns="http://www.w3.org/2000/svg" version="1.1" xmlns:xlink="http://www.w3.org/1999/xlink" xmlns:svgjs="http://svgjs.com/svgjs" width="64" height="64" x="0" y="0" viewBox="0 0 511.99 511.99" style="enable-background:new 0 0 512 512" xml:space="preserve" class="">
<defs id="SvgjsDefs1623"><linearGradient id="SvgjsLinearGradient1627"><stop id="SvgjsStop1628" stop-color="#fbb040" offset="0"></stop><stop id="SvgjsStop1629" stop-color="#f9ed32" offset="1"></stop></linearGradient></defs>
<g>
<g xmlns="http://www.w3.org/2000/svg">
	<g>
		<path d="M509.821,227.66c-2.688-22.585-7.531-40.819-14.469-54.436l9.312-3.102c5.406-1.797,8.437-7.516,6.906-13    c-6.344-22.624-23.952-43.319-52.312-61.506c-6.578-4.218-12.953-7.781-18.594-10.695l1.406-0.703    c3.609-1.812,5.891-5.508,5.891-9.547s-2.281-7.734-5.906-9.539c-3.172-1.578-78.139-38.726-132.043-43.741    c-5.344-0.492-10.203,3.047-11.391,8.273l-12.703,56.194c-1.062,4.719,1.172,9.562,5.453,11.804l1.812,0.945    c-11.891,4.734-24.883,8.07-37.976,8.07c-12.781,0-25.39-3.219-36.905-7.812l2.312-1.203c4.281-2.242,6.531-7.085,5.453-11.804    l-12.703-56.194c-1.188-5.227-6.047-8.766-11.391-8.273c-53.886,5.016-128.884,42.163-132.04,43.741    c-3.625,1.805-5.906,5.5-5.906,9.539s2.281,7.734,5.891,9.547l1.406,0.703c-5.641,2.914-12.016,6.477-18.594,10.695    c-28.358,18.188-45.967,38.882-52.311,61.506c-1.531,5.484,1.5,11.203,6.906,13l9.312,3.102    C9.7,186.841,4.856,205.075,2.169,227.66c-2.531,21.265-2.156,38.53-2.141,39.256c0.094,3.852,2.266,7.359,5.672,9.172    c1.562,0.828,3.281,1.234,5,1.234c2.016,0,4.016-0.562,5.766-1.703l63.139-40.655c1.172-0.75,2.172-1.719,2.969-2.852    l15.406-22.023c3.359,8.25,3.656,17.281,0.922,27.296c-3.547,12.976-11.046,22.514-11.109,22.584    c-2.266,2.812-2.953,6.578-1.828,10.016c42.046,128.287,63.483,211.801,63.702,212.629c1.203,4.719,5.453,8.031,10.328,8.031    h191.97c4.875,0,9.141-3.312,10.344-8.031c0.203-0.828,21.656-84.342,63.687-212.629c1.125-3.438,0.438-7.203-1.828-10.016    c-0.062-0.094-7.328-9.335-10.938-21.999c-2.859-10.078-2.578-19.382,0.812-27.828l15.374,21.968    c0.797,1.133,1.797,2.102,2.969,2.852l63.14,40.655c1.75,1.141,3.75,1.703,5.766,1.703c1.719,0,3.438-0.406,5-1.234    c3.406-1.812,5.578-5.32,5.672-9.172C511.977,266.189,512.351,248.925,509.821,227.66z M317.295,43.805    c32.576,5.125,72.139,20.984,95.419,31.249l-60.562,30.304l-43.623-22.796L317.295,43.805z M245.319,127.514v32.491    c0,5.891,4.781,10.664,10.672,10.664c5.89,0,10.655-4.773,10.655-10.664V127.35c18.352-2.047,35.773-8.688,50.445-16.25    l17.124,8.953l-11.108,11.062c-3.594,3.594-4.172,9.234-1.344,13.476l5.405,8.094l-64.179,71.896    c-2.28-0.375-4.624-0.586-6.999-0.586c-2.391,0-4.719,0.211-7,0.586L184.82,152.7l5.406-8.109    c2.828-4.242,2.266-9.882-1.344-13.476l-11.109-11.062l16.656-8.703C209.133,119.021,226.695,125.693,245.319,127.514z     M339.388,171.02l9.936,14.906l-56.232,59.741c-2.547-4.5-5.891-8.484-9.828-11.773L339.388,171.02z M277.31,266.658    c0,11.758-9.555,21.336-21.319,21.336c-11.766,0-21.328-9.578-21.328-21.336c0-11.757,9.562-21.327,21.328-21.327    C267.756,245.331,277.31,254.901,277.31,266.658z M228.711,233.894c-3.953,3.289-7.281,7.281-9.843,11.773l-56.218-59.725    l9.937-14.906L228.711,233.894z M194.696,43.805l8.765,38.757l-43.624,22.796L99.276,75.046    C122.541,64.788,162.087,48.93,194.696,43.805z M66.292,218.168l-44.437,28.616c1.297-20.781,5.281-49.272,15.312-66.709    l45.233,15.07L66.292,218.168z M24.621,153.404c15.187-30.797,57.577-50.648,71.03-56.312l57.983,29.015l13.984,13.937    l-4.781,7.172c-0.25,0.328-0.469,0.664-0.672,1.008l-21.687,32.522c-0.188,0.258-0.359,0.523-0.516,0.789l-5.625,8.438    L24.621,153.404z M107.901,268.432c3.344-5.125,8.296-13.89,11.343-24.624c3.641-12.773,3.734-24.976,0.406-36.241l15.656,5.219    c1.125,0.367,2.25,0.547,3.375,0.547c3.5,0,6.859-1.719,8.875-4.75l2.953-4.422l56.295,59.811l-85.201,47.07    C117.307,297.494,112.745,283.26,107.901,268.432z M128.119,331.82l88.451-48.873c2.047,4.969,5.031,9.469,8.703,13.281    l-91.56,53.732C131.916,344.07,130.041,338.039,128.119,331.82z M343.747,469.303H168.212c-0.75-2.828-1.703-6.406-2.875-10.656    h181.284C345.465,462.897,344.497,466.475,343.747,469.303z M352.527,437.318H159.431c-4.843-17.25-11.296-39.623-19.343-66.373    l106.732-62.623c2.953,0.641,6.016,1,9.172,1c3.141,0,6.218-0.359,9.171-1l106.725,62.623    C363.824,397.695,357.371,420.068,352.527,437.318z M378.261,349.961l-91.576-53.733c3.688-3.812,6.656-8.312,8.719-13.281    l88.451,48.873C381.917,338.039,380.058,344.07,378.261,349.961z M390.371,311.041l-85.217-47.07l56.311-59.826l2.969,4.438    c2.016,3.031,5.375,4.75,8.875,4.75c1.125,0,2.266-0.18,3.359-0.547l15.641-5.211c-3.329,11.265-3.219,23.467,0.406,36.233    c3.062,10.734,8.016,19.499,11.359,24.624C399.215,283.26,394.652,297.494,390.371,311.041z M377.652,189.974l-33.28-49.929    l13.983-13.937l57.999-29.023c6.157,2.585,18.39,8.14,31.39,16.484c22.672,14.546,34,28.655,39.594,39.851L377.652,189.974z     M445.697,218.168l-16.109-23.023l45.234-15.07c10.031,17.438,14.016,45.929,15.312,66.709L445.697,218.168z" fill="url(#SvgjsLinearGradient1627)" data-original="#000000" class=""></path>
	</g>
</g>
</g></svg>